<svg width="64" height="64" viewBox="0 0 64 64" fill="none" xmlns="http://www.w3.org/2000/svg">
  <defs>
    <linearGradient id="g" x1="0" y1="0" x2="64" y2="64" gradientUnits="userSpaceOnUse">
      <stop stop-color="#6366f1"/>
      <stop offset="1" stop-color="#7c3aed"/>
    </linearGradient>
  </defs>
  <rect width="64" height="64" rx="16" fill="url(#g)"/>
  <path d="M14 22l16.9 11.3a2 2 0 0 0 2.2 0L50 22M18 46h28a4 4 0 0 0 4-4V22a4 4 0 0 0-4-4H18a4 4 0 0 0-4 4v20a4 4 0 0 0 4 4Z"
        stroke="#fff" stroke-width="4" stroke-linecap="round" stroke-linejoin="round" fill="none"/>
  <circle cx="50" cy="48" r="11" fill="#f43f5e" stroke="#fff" stroke-width="3"/>
  <path d="M45 48h10" stroke="#fff" stroke-width="3.5" stroke-linecap="round"/>
</svg>
